Simulation
nRows=35
nColumns=15
endheader
time  TH_x TH_y TH_z SC_y  SC_z  SC_x  AC_y  AC_z  AC_x  GH_y  GH_z  GH_yy  EL_x  PS_y
0.595  0.000000  0.000000  0.000000  -38.77541682775474  4.1990409159448605  5.253777959918468  56.040259466062956  7.520976109225627  -5.71778123931512  -4.315962640130325  36.00916099363333  7.67920513932563  24.35133201731468  0.000000
0.6069  0.000000  0.000000  0.000000  -38.90304080431625  4.262650637094571  5.416999622484754  56.114420823411876  7.747552155031804  -5.698996740329052  -3.906982263200253  36.775075151787014  7.016830381732778  24.201727682475187  0.000000
0.6187999999999999  0.000000  0.000000  0.000000  -39.0356942673475  4.331355281534293  5.58162488989405  56.19128461351509  7.975881624149632  -5.6712013288760845  -3.495326351770801  37.51538976843725  6.377819013026021  24.044416922686754  0.000000
0.6306999999999999  0.000000  0.000000  0.000000  -39.17281559171613  4.404904585753724  5.747856003382519  56.27111072476082  8.204939184239397  -5.634719770118812  -3.0844347386927082  38.22907906180441  5.763712787432473  23.88058894046342  0.000000
0.6426  0.000000  0.000000  0.000000  -39.31343801558795  4.4838637443629175  5.916481199955034  56.352609077495245  8.433799141655943  -5.590801537624064  -2.6750182638770967  38.91538807151937  5.176832001277294  23.710922019437668  0.000000
0.6545  0.000000  0.000000  0.000000  -39.457390443709265  4.568761100500212  6.087033261873843  56.43582378179447  8.662091888792354  -5.53934216941251  -2.2691172245007336  39.5747509118464  4.619584227745217  23.536555607334385  0.000000
0.6664  0.000000  0.000000  0.000000  -39.605667797210614  4.659324978213433  6.25954545664029  56.520121546439576  8.890194247211314  -5.480126584369695  -1.8668556621813828  40.20737878780255  4.092738907513007  23.358833929253773  0.000000
0.6782999999999999  0.000000  0.000000  0.000000  -39.75861837293538  4.755168341505642  6.433314275212183  56.60632968068612  9.118464425829206  -5.4128906583738905  -1.470594999330844  40.81408394430203  3.597148733942258  23.179246388916095  0.000000
0.6901999999999999  0.000000  0.000000  0.000000  -39.916539518356494  4.855749002619676  6.607747469114808  56.693722842667185  9.348268322429464  -5.337615492789049  -1.0802492901074523  41.39503569112266  3.133290256931337  22.998902807350166  0.000000
0.7021  0.000000  0.000000  0.000000  -40.079006510869  4.960565551924344  6.7813273769993385  56.78289817235954  9.580894670910924  -5.253781234323878  -0.6982992280498844  41.95108152363004  2.7018892311476828  22.819184167745515  0.000000
0.714  0.000000  0.000000  0.000000  -40.245532979771504  5.068989212105058  6.9523597572794635  56.87295377523629  9.81891258662471  -5.160925848870824  -0.3246816498581288  42.48229992628046  2.3030571207852044  22.640929804400674  0.000000
0.7259  0.000000  0.000000  0.000000  -40.41506345001732  5.180391157001291  7.117766774439674  56.964612799558516  10.064962957032954  -5.057778052470675  0.03774265898121745  42.989622824737545  1.9368316863276787  22.46558302247505  0.000000
0.7377999999999999  0.000000  0.000000  0.000000  -40.58753326649592  5.292854852897706  7.276845094855956  57.05715711112714  10.321436793033799  -4.944817653659726  0.38960916487895436  43.474083591744666  1.6033999309401383  22.295140830584753  0.000000
0.7496999999999999  0.000000  0.000000  0.000000  -40.76158417377876  5.405801348709139  7.43530683958642  57.152174024023246  10.584235600061126  -4.825595323872432  0.7290231449846034  43.937517390311406  1.3026029231679108  22.131639416666044  0.000000
0.7615999999999999  0.000000  0.000000  0.000000  -40.935523970518084  5.521845433844121  7.593436182708716  57.24858194318812  10.854554998441573  -4.698081446771199  1.0575430914650297  44.37969814143439  1.0329687384561612  21.975308253470544  0.000000
0.7735  0.000000  0.000000  0.000000  -41.107863895039344  5.643340040885599  7.7484851483139945  57.34642332978712  11.135107906393296  -4.559375556186557  1.3748904374512747  44.80197786208984  0.7946428855072343  21.827552175997194  0.000000
0.7854  0.000000  0.000000  0.000000  -41.279071856897794  5.770877545354045  7.897595390956019  57.44369668547182  11.430256725090368  -4.406705859440721  1.6844345740949358  45.20486673553022  0.5870428220228987  21.690568579720818  0.000000
0.7972999999999999  0.000000  0.000000  0.000000  -41.45097694358524  5.9064749813875705  8.035679593072938  57.54054908296313  11.743052958530168  -4.234455826056257  1.9865842458495147  45.58954913167306  0.40862940098552636  21.56621772343346  0.000000
0.8091999999999999  0.000000  0.000000  0.000000  -41.62562864761515  6.053349492207697  8.156191831998441  57.63454317107115  12.077341575536794  -4.033667181744176  2.2822920930830173  45.9554479366144  0.25595052971240656  21.455557679590463  0.000000
0.8210999999999999  0.000000  0.000000  0.000000  -41.800181450248914  6.214240694329598  8.25250283971761  57.723313937795915  12.436866245533073  -3.8001098206742925  2.5676188380151044  46.30325401582907  0.13180677479400735  21.358263444538675  0.000000
0.833  0.000000  0.000000  0.000000  -41.970776084592806  6.395191489598952  8.324624064620021  57.804275982487965  12.817906951773377  -3.531149180643669  2.8375078970623417  46.632706927104095  0.032984862352546204  21.272510789351795  0.000000
0.8449  0.000000  0.000000  0.000000  -42.13374636788509  6.599609288732761  8.378641728075458  57.87584684668575  13.210016282237854  -3.2264102748537695  3.0820768278639616  46.948606220984864  -0.041107744353009734  21.194750311922135  0.000000
0.8567999999999999  0.000000  0.000000  0.000000  -42.28309612386726  6.818532083894541  8.43224536016676  57.94201532315212  13.601037484346396  -2.9079288385340325  3.2901641889203366  47.25939029430472  -0.09898939384658387  21.122638801088367  0.000000
0.8686999999999999  0.000000  0.000000  0.000000  -42.41851390548134  7.039344949775196  8.517966654277467  58.00371940916896  13.965453421766533  -2.598561573498628  3.4514888207873327  47.5807480079172  -0.14146981820338525  21.05605747621865  0.000000
0.8805999999999999  0.000000  0.000000  0.000000  -42.54181108037174  7.252175837654137  8.681659095356844  58.07173643804459  14.272142757923225  -2.3370983488358177  3.5607752415573555  47.92400002382062  -0.18249754597095683  20.99093386567496  0.000000
0.8925  0.000000  0.000000  0.000000  -42.65765543630235  7.458725867516143  8.928459208434182  58.14091220818968  14.518243158265149  -2.113640131069715  3.609010901026294  48.29789304355424  -0.21972728623272186  20.92507683554276  0.000000
0.9044  0.000000  0.000000  0.000000  -42.78401249839482  7.674594566601965  9.232255061654234  58.22433696807681  14.727614292090529  -1.9025796808923334  3.5944557756519124  48.70094534079632  -0.26182464370601133  20.84402917512746  0.000000
0.9162999999999999  0.000000  0.000000  0.000000  -42.93337836241192  7.918848697931891  9.545535075093227  58.30633636433076  14.93687108242792  -1.6476209558702168  3.511846957805297  49.131271065085265  -0.3028875999821604  20.751474800167703  0.000000
0.9281999999999999  0.000000  0.000000  0.000000  -43.12612981668735  8.204112273326109  9.834673286817353  58.39105326551652  15.184901860368354  -1.3216794084322632  3.3659137259452896  49.5796180063696  -0.3537236818651474  20.642561229740178  0.000000
0.9400999999999999  0.000000  0.000000  0.000000  -43.36987453060558  8.535410156508464  10.092607259984417  58.4676014351792  15.474778948819765  -0.9074331573792717  3.150170642028991  50.05476962771314  -0.40844038482932127  20.52282212819827  0.000000
0.952  0.000000  0.000000  0.000000  -43.674133137128834  8.909870299751116  10.31257500048817  58.53778685413221  15.832637805909052  -0.4097507821463566  2.8653374839575454  50.548766366155455  -0.47664353225443107  20.390528120514197  0.000000
0.9639  0.000000  0.000000  0.000000  -44.04942050584772  9.316968803366192  10.5106138596199  58.60785572653942  16.239854112801762  0.16191940602213103  2.504667094704245  51.08503241283199  -0.5551234950490309  20.243383976050364  0.000000
0.9757999999999999  0.000000  0.000000  0.000000  -44.5013207954601  9.74380182048373  10.714889726655754  58.673089573702924  16.698132879539248  0.784848552047369  2.06914074361453  51.654329697382444  -0.6475160586107032  20.088141884596606  0.000000
0.9876999999999999  0.000000  0.000000  0.000000  -45.04528369388318  10.162676342916106  10.938508443125244  58.77121150687862  17.20153986975844  1.4243193937065428  1.548245008725205  52.28165892026918  -0.7599141333065882  19.91591422137238  0.000000
0.9995999999999999  0.000000  0.000000  0.000000  -45.69787226643312  10.543686637171925  11.219581439768984  58.89176179219207  17.748501692796893  2.078816096261389  0.9433292158297419  52.95318540089393  -0.8790054069152831  19.750221620349322  0.000000
